<svg width="18" height="18" viewBox="0 0 18 18" fill="none" xmlns="http://www.w3.org/2000/svg">
<path fill-rule="evenodd" clip-rule="evenodd" d="M9.00073 17.25C13.5571 17.25 17.2507 13.5563 17.2507 9C17.2507 4.44365 13.5571 0.75 9.00073 0.75C4.44438 0.75 0.750732 4.44365 0.750732 9C0.750732 13.5563 4.44438 17.25 9.00073 17.25ZM7.99672 13.9747V12.3H9.66984V13.9747H7.99672ZM10.6615 6.57946C10.6615 5.83366 10.0477 5.37001 9.05768 5.37001C8.78822 5.35828 8.52025 5.41627 8.27976 5.53839C8.03927 5.66051 7.83439 5.84264 7.68488 6.06713C7.50949 6.34114 7.41354 6.65842 7.40768 6.9837L5.69993 6.76343C5.78682 6.06554 6.11034 5.41851 6.61652 4.93026C7.32453 4.32711 8.23808 4.02063 9.1666 4.07475C11.0113 4.07475 12.3016 5.08044 12.3016 6.51924C12.3219 7.0305 12.1805 7.53514 11.8973 7.96132C11.5069 8.46265 11.0252 8.88562 10.4775 9.20791C9.76224 9.71281 9.57744 10.0115 9.57744 10.6616C9.57818 10.8699 9.58948 11.078 9.61127 11.2852H8.06521C8.08652 11.1147 8.09808 10.9431 8.09985 10.7713L8.08832 10.5386C8.06252 9.97456 8.22951 9.41855 8.56185 8.96206C8.85715 8.58604 9.22604 8.27415 9.64592 8.04547C10.3958 7.51252 10.6615 7.12891 10.6615 6.57946Z" fill="#16AB89"/>
</svg>
